<?xml version="1.0" encoding="UTF-8"?>
<svg version="1.1" viewBox="0 0 2048 1774" width="7973" height="6910" xmlns="http://www.w3.org/2000/svg">
<path transform="translate(0)" d="m0 0h2048v1774h-2048z" fill="#FDFDFD"/>
<path transform="translate(917,294)" d="m0 0h124l83 2 71 3 68 4 78 6 72 7 76 9 64 9 63 10 65 12 57 12 34 8 10 12 12 16 5 6 1 3 6 74 5 80 3 64 2 61 1 48v147l-2 82-3 73-5 85-7 90-8 82-8 69-2 16-3 3-41 13-43 12-56 14-62 13-63 11-55 8-58 7-64 6-72 5-70 3-39 1h-123l-69-2-80-4-70-5-77-7-71-8-68-9-72-11-73-13-69-14-56-13-31-8-9-9-7-8-11-11-4-7-8-66-8-78-7-83-5-76-4-81-2-60-1-45v-162l2-79 3-71 5-84 6-77 1-12 10-4 35-10 44-11 53-11 57-10 61-9 67-8 61-6 63-5 86-5 84-3z" fill="#84CCDD"/>
<path transform="translate(917,294)" d="m0 0h124l83 2 71 3 68 4 78 6 72 7 76 9 64 9 63 10 65 12 57 12 34 8 10 12 12 16 5 6 1 3 6 74 5 80 3 64 2 61 1 48v147l-2 82-3 73-5 85-7 90-8 82-8 69-2 16-3 3-41 13-43 12-56 14-62 13-63 11-55 8-58 7-64 6-72 5-70 3-39 1h-123l-69-2-80-4-70-5-77-7-71-8-68-9-72-11-73-13-69-14-56-13-31-8-9-9-7-8-11-11-4-7-8-66-8-78-7-83-5-76-4-81-2-60-1-45v-162l2-79 3-71 5-84 6-77 1-12 10-4 35-10 44-11 53-11 57-10 61-9 67-8 61-6 63-5 86-5 84-3zm5 321-84 2-76 3-88 5-81 6-77 7-84 9-80 10-84 12-32 5-1 1-1 59v93l1 60 2 67 3 67 5 82 5 64 8 86 9 79 3 19 56 14 55 12 61 12 70 12 67 10 61 8 82 9 80 7 77 5 67 3 31 1 53 1h73l52-1 73-3 63-4 67-6 61-7 57-8 48-8 52-10 53-12 47-12 48-14 27-9 4-29 10-91 7-78 6-84 4-73 3-80 1-41v-192l-2-3-76-12-70-10-79-10-82-9-75-7-92-7-69-4-95-4-85-2z" fill="#C481B5"/>
<path transform="translate(1321,693)" d="m0 0 4 1 10 8 13 11 11 9 10 9 8 7 10 9 8 7 13 12 12 11 17 16 11 11 8 7 62 62 7 8 15 15 7 8 9 9 7 8 16 17 9 10 10 11 7 8 9 10 9 11 10 11 2 3 2 15v5l-11 12-9 11-13 14-7 8-11 12-9 10-24 26-7 7-7 8-15 15-7 8-66 66-8 7-13 13-8 7-7 7-8 7-15 14-8 7-10 9-11 9-10 9-22 18-5 2-16-6-14-8-13-10-11-10-9-11-10-15-7-16-5-15-4-11 1-7 49-49 7-8 67-67 7-8 78-78-2-4-31-31-7-8-72-72-7-8-57-57-7-8-20-20-6-16v-7l7-19 9-15 7-9 9-10 7-7 16-12 15-8z" fill="#F7A732"/>
<path transform="translate(697,693)" d="m0 0 9 2 16 7 15 10 13 11 8 8 10 13 9 16 6 15 3 15 1 11-11 12-46 46-7 8-68 68-7 8-68 68 1 4 60 60 7 8 70 70 7 8 48 48 7 8 4 4-1 7-1 8 5 5-2 9-7 17-7 11-7 9-9 10-12 11-15 10-17 8-9 2-13-11-11-9-28-24-14-13-8-7-26-24-7-7-8-7-21-21-8-7-36-36-7-8-22-22-7-8-10-10-7-8-7-7-7-8-15-16-7-8-10-11-9-11-12-13-10-13-6-16 2-4 10-11 9-11 13-14 7-8 9-10 11-12 9-10 30-32 11-11 7-8 73-73 8-7 12-12 8-7 17-16 10-9 11-10 11-9 12-11 11-9 13-11z" fill="#F7B752"/>
<path transform="translate(1100,668)" d="m0 0h28l20 4 15 6 11 7 10 9 8 10 6 12 2 13v7l-23 53-37 87-19 45-18 43-17 41-19 46-46 115-16 41-21 55-16 43-17 46-1 2h-24l-21-3-19-5-16-6-19-10-12-9-6-5-7-18 2-9 20-60 17-48 19-52 21-55 24-60 19-46 18-42 14-32 17-38 17-37 17-36 28-58 26-52 2-2z" fill="#F7B752"/>
<path transform="translate(917,294)" d="m0 0h124l83 2 71 3 68 4 78 6 72 7 76 9 64 9 63 10 65 12 57 12 34 8 10 12 12 16 5 6 1 3 6 74 5 80 3 64 2 61 1 48v147l-2 82-3 73-5 85-7 90-8 82-8 69-2 16-3 3-41 13-43 12-56 14-62 13-63 11-55 8-58 7-64 6-72 5-70 3-39 1h-123l-69-2-80-4-70-5-77-7-71-8-68-9-72-11-73-13-69-14-56-13-31-8-9-9-7-8-11-11-4-7-8-66-8-78-7-83-5-76-4-81-2-60-1-45v-162l2-79 3-71 5-84 6-77 1-12 10-4 35-10 44-11 53-11 57-10 61-9 67-8 61-6 63-5 86-5 84-3zm-31 4-68 2-82 4-84 6-63 6-62 7-65 9-59 10-55 11-50 12-38 11-8 3-1 3-7 90-5 86-3 75v38l22-3 76-11 69-9 78-9 72-7 71-6 90-6 82-4 58-2 43-1h188l75 2 91 4 94 6 74 6 82 8 79 9 76 10 82 12 43 7h4v-38l-3-77-4-72-6-82-2-24-1-5-33-8-63-13-60-11-62-10-65-9-68-8-70-7-77-6-64-4-66-3-69-2zm36 317-84 2-76 3-88 5-81 6-77 7-84 9-80 10-84 12-32 5-1 1-1 59v93l1 60 2 67 3 67 5 82 5 64 8 86 9 79 3 19 56 14 55 12 61 12 70 12 67 10 61 8 82 9 80 7 77 5 67 3 31 1 53 1h73l52-1 73-3 63-4 67-6 61-7 57-8 48-8 52-10 53-12 47-12 48-14 27-9 4-29 10-91 7-78 6-84 4-73 3-80 1-41v-192l-2-3-76-12-70-10-79-10-82-9-75-7-92-7-69-4-95-4-85-2z" fill="#392666"/>
<path transform="translate(886,298)" d="m0 0h186l69 2 84 4 87 6 67 6 75 8 69 9 66 10 58 10 80 16 39 9 3 1 2 17v10l-11-2-47-11-57-12-58-11-60-10-55-8-66-8-61-6-65-5-56-3-61-2h-123l-61 2-71 4-62 5-68 7-63 8-54 8-64 11-52 10-56 12-55 13-15 4-4 1h-24l-16 4-16 8-7 5-27 7-56 17-35 11 1-21 5-62 1-3 21-7 41-11 39-9 55-11 61-10 66-9 73-8 70-6 75-5 65-3z" fill="#C067A7"/>
<path transform="translate(1321,693)" d="m0 0 4 1 10 8 13 11 11 9 10 9 8 7 10 9 8 7 13 12 12 11 17 16 11 11 8 7 62 62 7 8 15 15 7 8 9 9 7 8 16 17 9 10 10 11 7 8 9 10 9 11 10 11 2 3 2 15v5l-11 12-9 11-13 14-7 8-11 12-9 10-24 26-7 7-7 8-15 15-7 8-66 66-8 7-13 13-8 7-7 7-8 7-15 14-8 7-10 9-11 9-10 9-22 18-5 2-16-6-14-8-13-10-11-10-9-11-10-15-7-16-5-15-4-11 1-7 49-49 7-8 67-67 7-8 78-78-2-4-31-31-7-8-72-72-7-8-57-57-7-8-20-20-6-16v-7l7-19 9-15 7-9 9-10 7-7 16-12 15-8zm169 158-7 8-12 11-11 10-11 9-11 10-10 8-16 13-17 13-2 4 64 64-6 7-11 11-7 8-81 81-7 8-63 63-7 8-35 35 3 11 9 19 10 14 12 13 13 11 13 8 15 7 8 2 11-9 13-11 11-9 11-10 8-7 10-9 8-7 15-14 10-9 8-8 8-7 17-17 8-7 45-45 7-8 20-20 7-8 10-10 7-8 16-17 11-12 18-20 9-11 12-13 7-9-6-8-11-12-9-11-15-16-7-8-22-24-12-13-7-7-7-8-14-14-7-8-22-22z" fill="#F7B752"/>
<path transform="translate(927,588)" d="m0 0h166l75 2 72 3 85 5 77 6 75 7 81 9 71 9 83 12 68 11 4 1v-14h1v38l-16-2-71-11-86-12-66-8-84-9-90-8-87-6-75-4-82-3-43-1h-188l-75 2-91 4-94 6-73 6-73 7-80 9-70 9-70 10-32 5h-3v-38h1v20l40-7 72-11 80-11 85-10 70-7 83-7 76-5 81-4 60-2z" fill="#C067A7"/>
<path transform="translate(1023,1119)" d="m0 0 1 4-19 48-20 52-24 64-16 44-1 1h-24l-21-3-21-6-15-6-15-8-16-12-2-4 12-36 17-50 20-55 3-3 43-7 43-9 48-12z" fill="#F7A732"/>
<path transform="translate(402,412)" d="m0 0h24l16 4 11 5 10 6 10 9 7 7 9 14 6 16 2 10v24l-4 16-8 16-8 11-9 9-15 10-15 6-15 3h-17l-15-3-13-5-11-6-13-11-11-14-8-17-4-18v-18l3-15 6-15 7-11 11-12 10-8 16-8 13-4z" fill="#7DC4A7"/>
<path transform="translate(524,1145)" d="m0 0 49 7 36 4 38 3 19 1 56 2 12 13 43 43 3 4-1 8-7 16-8 13-8 10-10 11-14 11-13 8-13 6-8 2-14-11-15-13-14-12-10-9-8-7-10-9-12-11-13-12-16-15-12-12-8-7-42-42z" fill="#F7A732"/>
<path transform="translate(901,384)" d="m0 0h21l16 4 12 5 10 7 10 9 7 8 7 12 6 18 1 6v22l-4 16-8 16-7 9-11 11-13 8-12 5-12 3h-25l-15-4-16-8-13-10-10-12-9-17-4-16-1-14 2-16 5-15 6-11 7-9 10-10 14-9 12-5z" fill="#F6CE56"/>
<path transform="translate(659,388)" d="m0 0 17 1 15 4 16 8 11 9 9 10 8 13 5 13 2 9 1 17-2 14-5 15-6 11-8 10-9 9-11 7-13 6-11 3-7 1h-16l-15-3-13-5-10-6-11-9-10-12-8-16-4-13-1-7v-18l3-14 6-15 9-13 12-12 13-8 12-5 12-3z" fill="#ED7E64"/>
<path transform="translate(1321,693)" d="m0 0 4 1 10 8 13 11 11 9 10 9 8 7 10 9 8 7 13 12 12 11 17 16 11 11 8 7 62 62 7 8 15 15 7 8 9 9 7 8 16 17 9 10 10 11 7 8 9 10 9 11 10 11 2 3 2 15v5l-11 12-9 11-13 14-7 8-11 12-9 10-24 26-7 7-7 8-15 15-7 8-66 66-8 7-13 13-8 7-7 7-8 7-15 14-8 7-10 9-11 9-10 9-22 18-5 2-16-6-14-8-13-10-11-10-9-11-10-15-7-16-5-15-4-11 1-7 49-49 7-8 67-67 7-8 78-78-2-4-31-31-7-8-72-72-7-8-57-57-7-8-20-20-6-16v-7l7-19 9-15 7-9 9-10 7-7 16-12 15-8zm-1 4-13 5-13 7-12 9-10 9-8 8-11 15-8 16-5 14 6 7 16 17 48 48 7 8 70 70 7 8 63 63-6 7-11 11-7 8-81 81-7 8-63 63-7 8-35 35 3 11 9 19 10 14 12 13 13 11 13 8 15 7 8 2 11-9 13-11 11-9 11-10 8-7 10-9 8-7 15-14 10-9 8-8 8-7 17-17 8-7 45-45 7-8 20-20 7-8 10-10 7-8 16-17 11-12 18-20 9-11 12-13 7-9-6-8-11-12-9-11-15-16-7-8-22-24-12-13-7-7-7-8-14-14-7-8-68-68-8-7-14-14-8-7-7-7-8-7-14-13-8-7-10-9-11-9-10-9-22-18z" fill="#392666"/>
<path transform="translate(697,693)" d="m0 0 9 2 16 7 15 10 13 11 8 8 10 13 9 16 6 15 3 15 1 11-11 12-46 46-7 8-68 68-7 8-68 68 1 4 60 60 7 8 70 70 7 8 48 48 7 8 4 4-1 7-1 8 5 5-2 9-7 17-7 11-7 9-9 10-12 11-15 10-17 8-9 2-13-11-11-9-28-24-14-13-8-7-26-24-7-7-8-7-21-21-8-7-36-36-7-8-22-22-7-8-10-10-7-8-7-7-7-8-15-16-7-8-10-11-9-11-12-13-10-13-6-16 2-4 10-11 9-11 13-14 7-8 9-10 11-12 9-10 30-32 11-11 7-8 73-73 8-7 12-12 8-7 17-16 10-9 11-10 11-9 12-11 11-9 13-11zm0 4-14 12-11 9-14 12-10 9-8 7-20 18-13 12-15 14-8 8-8 7-79 79-7 8-12 12-7 8-8 8-7 8-15 16-18 20-12 14-10 11-9 11v4l10 11 9 11 14 15 7 8 9 10 22 24 14 15 7 7 7 8 16 16 7 8 58 58 8 7 15 15 8 7 7 7 8 7 16 15 8 7 14 12 10 9 11 9 13 11 8 6 11-3 19-10 13-10 12-11 11-14 8-13 7-16 1-8-11-12-43-43-7-8-72-72-7-8-76-76 2-4 48-48 7-8 75-75 7-8 56-56 7-8 14-14-1-8-7-16-7-12-11-14-11-11-13-10-16-9-13-5z" fill="#392666"/>
<path transform="translate(1100,668)" d="m0 0h28l20 4 15 6 11 7 10 9 8 10 6 12 2 13v7l-23 53-37 87-19 45-18 43-17 41-19 46-46 115-16 41-21 55-16 43-17 46-1 2h-24l-21-3-19-5-16-6-19-10-12-9-6-5-7-18 2-9 20-60 17-48 19-52 21-55 24-60 19-46 18-42 14-32 17-38 17-37 17-36 28-58 26-52 2-2zm6 3-16 2-3 3-40 80-11 23-16 34-19 41-16 36-18 41-17 40-19 46-21 53-15 39-19 51-15 42-14 40-15 44-2 9 8 7 15 10 19 9 19 6 20 4 9 1h24l5-12 17-47 17-45 20-52 22-56 18-45 15-37 16-39 19-46 18-43 19-45 46-108 17-39-1-7-7-11-10-10-14-9-12-5-17-4-10-1z" fill="#392666"/>
<path transform="translate(402,412)" d="m0 0h24l16 4 11 5 10 6 10 9 7 7 9 14 6 16 2 10v24l-4 16-8 16-8 11-9 9-15 10-15 6-15 3h-17l-15-3-13-5-11-6-13-11-11-14-8-17-4-18v-18l3-15 6-15 7-11 11-12 10-8 16-8 13-4zm7 3-13 2-15 5-11 6-11 9-10 11-3 5 3 10 8 17 10 14 15 15 15 10 13 6 13 4 13 2h21l17-3 15-5 4-14 1-8v-12l-3-17-5-12-6-11-11-12-9-8-17-9-15-4-8-1z" fill="#65BA93"/>
<path transform="translate(835,439)" d="m0 0 5 5 8 10 9 9 13 9 16 8 19 5 8 1h20l17-3 15-5 16-8 8-6h2v11l-4 16-8 16-7 9-11 11-13 8-12 5-12 3h-25l-15-4-16-8-13-10-10-12-9-17-4-16-1-14 2-16z" fill="#F6C134"/>
<path transform="translate(595,426)" d="m0 0 2 2 6 16 6 12 10 14 8 9 14 11 12 7 13 5 12 3 7 1h24l17-3 9-2-2 6-9 13-11 11-11 7-13 6-11 3-7 1h-16l-15-3-13-5-10-6-11-9-10-12-8-16-4-13-1-7v-18l3-14 6-15z" fill="#ED684A"/>
<path transform="translate(909,380)" d="m0 0 21 2 15 5 14 8 11 9 10 7 10 9 9 11 8 16 4 15 1 7v15l-3 16-6 15-8 12-9 10-11 9-16 8-13 4-7 1h-20l-14-3-15-6-12-8-1-3-6-2-13-9-12-12-9-14-6-15-3-16v-15l3-16 6-15 8-12 9-10 8-7 14-8 13-5 9-2zm-8 4-17 4-16 8-10 8-10 10-8 13-5 12-3 12-1 14 2 16 4 13 8 15 11 13 13 10 15 7 15 4h25l15-4 16-8 9-7 11-11 8-13 5-12 3-13v-22l-4-16-5-12-9-13-10-10-10-7-12-6-13-4-6-1z" fill="#C067A7"/>
<path transform="translate(654,385)" d="m0 0h17l16 3 16 7 11 7 11 10 17 17 9 14 5 12 3 12 1 7v14l-3 16-5 13-7 12-11 13-12 9-16 8-14 4-8 1h-14l-16-3-13-5-12-7-9-8v-2l-5-2-12-11-9-10-7-12-6-18-1-6v-24l4-16 8-16 8-11 9-9 10-7 14-7 14-4zm5 3-14 2-15 5-11 6-9 7-10 10-9 14-6 16-2 11v18l3 15 7 16 8 11 8 9 11 8 14 7 14 4 7 1h16l15-3 12-5 11-6 12-11 7-8 8-14 5-15 2-14-1-17-4-15-8-16-9-11-10-9-13-8-13-5-9-2z" fill="#C067A7"/>
<path transform="translate(489,457)" d="m0 0 5 5 7 12 5 15 2 13v11l-2 14-5 15-6 11-7 9-4 5-11 9-14 8-15 5-13 2h-13l-16-3-13-5-12-7-12-10-5-6 1-2 11 8 15 7 12 3 7 1h17l15-3 15-6 12-8 10-9 8-10 8-16 4-13 1-5v-24l-4-16z" fill="#C067A7"/>
<path transform="translate(402,412)" d="m0 0h24l16 4 11 5 10 6 10 9 7 7 9 14 6 16 2 10v24l-4 16-8 16-8 11-9 9-15 10-15 6-15 3h-17l-15-3-13-5-11-6-13-11-11-14-8-17-4-18v-18l3-15 6-15 7-11 11-12 10-8 16-8 13-4zm7 3-13 2-15 5-11 6-11 9-10 11-7 12-6 18-1 6v22l4 16 8 16 7 9 11 11 13 8 12 5 13 3h22l16-4 16-8 11-8 7-7 9-13 5-11 4-14 1-8v-12l-3-17-5-12-6-11-11-12-9-8-17-9-15-4-8-1z" fill="#392666"/>
<path transform="translate(654,385)" d="m0 0h17l16 3 16 7 11 7 11 10 10 14 7 15 3 12 1 7v17l-3 15-6 15-8 12-9 10-11 9-16 8-13 4-6 1h-23l-16-4-17-8-10-8-11-11-9-14-6-16-2-10v-24l4-16 8-16 8-11 9-9 10-7 14-7 14-4zm5 3-14 2-15 5-11 6-9 7-10 10-9 14-6 16-2 11v18l3 15 7 16 8 11 8 9 11 8 14 7 14 4 7 1h16l15-3 12-5 11-6 12-11 7-8 8-14 5-15 2-14-1-17-4-15-8-16-9-11-10-9-13-8-13-5-9-2z" fill="#392666"/>
<path transform="translate(909,380)" d="m0 0 21 2 15 5 14 8 11 9 8 9 8 13 5 12 3 12 1 17-2 15-5 15-7 13-8 10-8 8-14 9-13 6-12 3-8 1h-13l-17-3-15-6-11-7-10-9-9-10-8-14-5-15-2-12v-15l3-16 6-15 8-12 9-10 8-7 14-8 13-5 9-2zm-8 4-17 4-16 8-10 8-10 10-8 13-5 12-3 12-1 14 2 16 4 13 8 15 11 13 13 10 15 7 15 4h25l15-4 16-8 9-7 11-11 8-13 5-12 3-13v-22l-4-16-5-12-9-13-10-10-10-7-12-6-13-4-6-1z" fill="#392666"/>
</svg>
